<svg width="1200" height="630" xmlns="http://www.w3.org/2000/svg">
  <rect width="1200" height="630" fill="#0d0d0d"/>
  <pattern id="dots" x="0" y="0" width="28" height="28" patternUnits="userSpaceOnUse">
    <circle cx="1" cy="1" r="1" fill="#2a2a2a"/>
  </pattern>
  <rect width="1200" height="630" fill="url(#dots)"/>
  <line x1="30" y1="30" x2="1170" y2="30" stroke="#c9a84c" stroke-width="1.5" opacity="0.7"/>
  <line x1="30" y1="600" x2="1170" y2="600" stroke="#c9a84c" stroke-width="1.5" opacity="0.7"/>
  <line x1="30" y1="30" x2="30" y2="600" stroke="#c9a84c" stroke-width="1.5" opacity="0.7"/>
  <line x1="1170" y1="30" x2="1170" y2="600" stroke="#c9a84c" stroke-width="1.5" opacity="0.7"/>
  <text x="600" y="195" text-anchor="middle" fill="#c9a84c" font-size="18" font-family="Georgia" letter-spacing="6">✦  ONLINE TOOLS  ✦</text>
  <text x="600" y="285" text-anchor="middle" fill="#ffffff" font-size="74" font-family="Georgia" font-weight="bold">Free <tspan fill="#c9a84c" font-style="italic">Age, BMI</tspan></text>
  <text x="600" y="365" text-anchor="middle" fill="#ffffff" font-size="74" font-family="Georgia" font-weight="bold">&amp; Loan Calculator</text>
  <text x="600" y="415" text-anchor="middle" fill="#777777" font-size="24" font-family="Georgia" letter-spacing="2">Fast  ·  Accurate  ·  Free</text>
  <rect x="170" y="440" width="220" height="40" rx="20" fill="none" stroke="#c9a84c" stroke-width="1"/>
  <text x="280" y="465" text-anchor="middle" fill="#c9a84c" font-size="17" font-family="Georgia">Age Calculator</text>
  <rect x="490" y="440" width="220" height="40" rx="20" fill="none" stroke="#c9a84c" stroke-width="1"/>
  <text x="600" y="465" text-anchor="middle" fill="#c9a84c" font-size="17" font-family="Georgia">BMI Calculator</text>
  <rect x="810" y="440" width="220" height="40" rx="20" fill="none" stroke="#c9a84c" stroke-width="1"/>
  <text x="920" y="465" text-anchor="middle" fill="#c9a84c" font-size="17" font-family="Georgia">Loan Calculator</text>
  <text x="600" y="575" text-anchor="middle" fill="#444444" font-size="16" font-family="Georgia" letter-spacing="3">agecalculatorweb.com</text>
</svg>
